<?xml version="1.0" encoding="UTF-8"?>
<svg id="Layer_1" data-name="Layer 1" xmlns="http://www.w3.org/2000/svg" viewBox="0 0 3000 3000">
  <defs>
    <style>
      .cls-1 {
        fill: #212045;
      }
    </style>
  </defs>
  <g>
    <path class="cls-1" d="M1989.72,1988.92c36.88-97.16,101.93-176.3,136.02-217.77,56.95-69.29,58.87-52.69,133.54-136.11,33.38-37.28,62.83-73.93,88.56-108.44-76.61-175.33-193.59-338.86-311.46-492.86-27.6-36.97-54.39-73.8-83.98-108.81-29.22-35.15-62.01-50.87-96.59-14.59-267.18,210.81-160.59,1035.88-667.41,1016.3-237.38-4.46-348.42-109.66-510.49-253.05-21.91-18.04-58.69-48.56-83.68-23.9l-.24.25c-11.12,12.04-15.98,30.97-18.91,47.41-20.15,119-12.39,248.98,18.26,366.35,18.4,67.21,41.19,131.86,81.04,189.56,62.31,89.39,130.25,75.81,223.92,47.38,18.84-5.59,38.2-11.52,57.4-17.46,261.93-75.16,456.51-238.38,733.35-189.79,42.95,7.39,84.22,18.6,124.11,33.22,44.53,16.54,93.35,37.29,143.25,58.18-.83-60.9,7.56-128.01,33.31-195.86Z"/>
    <path class="cls-1" d="M2370.03,1616.28c-8.78,7.72-15.48,18.27-23.56,28.56-4.33,5.69-8.66,11.34-13.15,17.12-108.28,141.56-173.23,180.7-234.76,299.39-32.81,69.46-48.36,127.8-53.01,219.02-1.05,22.56,3.39,44.18,24.25,54.84,4.08,2.25,8.53,4.12,12.94,5.8,32.94,12.3,63.3,22.67,95.92,31.32,48.39,12.09,106.74,26,149.92-1.37,47.05-31.7,66.87-96.19,81.73-148.94,42.88-170.58,30.5-345.29-24.14-501.15-4.44-8.55-9.81-10-16.01-4.7l-.14.11Z"/>
  </g>
  <path class="cls-1" d="M1420.97,679.43c91.15-8.44,215.71,19.01,299.04,72.16,14.64,12.08,21.78,31.3,18.37,50.02-31.77,96.28-97.44,177.54-134.44,275.28-8.17,21.09-15.88,45.04-23.42,71.24-49.57,158.25-90.69,486.52-217.95,591.49-185.26,145.59-582.38-61.04-672.38-246.29-3.19-10.03-4.17-19.05-1.55-28.4,15.51-51.32,80.67-139.06,119.18-195.06,85.92-124.62,332.41-465.76,446.39-533.97,47.41-27.37,112.71-50.2,166.36-56.42l.41-.04Z"/>
</svg>